<!--?xml version="1.0" encoding="utf-8"?-->
<!-- Generator: Adobe Illustrator 25.2.3, SVG Export Plug-In . SVG Version: 6.00 Build 0)  -->
<svg version="1.1" id="_x34_" xmlns="http://www.w3.org/2000/svg" xmlns:xlink="http://www.w3.org/1999/xlink" x="0px" y="0px" viewBox="0 0 800 715.794" style="enable-background:new 0 0 800 715.794;" xml:space="preserve">
<style type="text/css">
	.st0{fill:#FFFFFF;}
</style>
<g>
	<path class="st0" d="M800,301.493C800,134.983,644.294,0,452.22,0C260.148,0,104.441,134.983,104.441,301.493
		c0,25.058,3.556,49.389,10.207,72.663C59.98,405.177,0,420.325,0,420.325s58.364,29.306,111.375,40.303
		c-8.944,20.564-13.862,42.809-13.862,66.048c0,104.449,98.711,189.118,220.477,189.118c56.091,0,107.281-17.978,146.192-47.568
		c29.708,12.786,63.244,19.997,98.746,19.997c121.767,0,220.478-84.671,220.478-189.118c0-24.891-5.617-48.654-15.805-70.42
		C788.376,390.035,800,346.944,800,301.493z" style="opacity: 1; fill: rgb(244, 245, 241); stroke-width: 2px; stroke: rgb(0, 0, 0);"></path>
</g>
</svg>
